<?xml version="1.0" standalone="no"?>
<!DOCTYPE svg PUBLIC "-//W3C//DTD SVG 20010904//EN"
 "http://www.w3.org/TR/2001/REC-SVG-20010904/DTD/svg10.dtd">
<svg version="1.0" xmlns="http://www.w3.org/2000/svg"
 width="150.000000pt" height="91.000000pt" viewBox="0 0 150.000000 91.000000"
 preserveAspectRatio="xMidYMid meet">
<metadata>
Created by potrace 1.15, written by Peter Selinger 2001-2017
</metadata>
<g transform="translate(0.000000,91.000000) scale(0.100000,-0.100000)"
fill="#000000" stroke="none">
<path d="M1225 759 l-120 -121 -52 5 c-33 4 -81 20 -132 46 -156 78 -256 88
-388 35 -53 -21 -67 -24 -73 -13 -41 72 -95 147 -102 143 -4 -3 -8 -20 -8 -37
0 -53 -9 -58 -65 -38 -28 10 -72 21 -98 24 l-49 7 45 -84 45 -84 -56 -11 c-30
-6 -75 -11 -100 -11 l-44 0 7 -52 c9 -71 49 -189 81 -241 60 -97 174 -187 289
-228 41 -14 51 -22 53 -43 l3 -26 234 0 234 0 3 26 c2 21 12 29 53 43 206 74
331 234 370 472 5 36 5 37 -32 44 l-38 7 45 24 c25 12 66 30 93 39 46 16 53
27 41 59 -9 24 -25 20 -140 -34 -59 -28 -109 -49 -111 -47 -2 3 38 44 88 92
76 71 91 90 82 104 -6 9 -16 17 -24 19 -8 1 -68 -52 -134 -119z m-965 -3 c86
-27 151 -62 149 -82 0 -5 -25 -21 -56 -36 -65 -30 -57 -34 -119 59 -33 51 -41
73 -26 73 4 0 27 -7 52 -14z m497 -35 c27 -5 107 -38 178 -73 l130 -63 -353
-3 c-194 -1 -360 1 -368 6 -10 5 23 26 108 67 156 75 203 85 305 66z m-203
-167 c194 -5 367 -3 523 6 128 7 236 10 240 7 11 -12 -16 -115 -47 -182 -55
-117 -156 -205 -300 -260 -53 -20 -70 -31 -70 -46 0 -18 -10 -19 -205 -19
-196 0 -205 1 -205 19 0 12 -9 22 -22 26 -38 11 -162 69 -182 85 -59 47 -98
86 -131 134 -41 61 -85 172 -85 218 l0 31 98 -7 c53 -3 227 -9 386 -12z"/>
</g>
</svg>
