<?xml version="1.0" standalone="no"?>
<!DOCTYPE svg PUBLIC "-//W3C//DTD SVG 20010904//EN"
 "http://www.w3.org/TR/2001/REC-SVG-20010904/DTD/svg10.dtd">
<svg version="1.0" xmlns="http://www.w3.org/2000/svg"
 width="195.000000pt" height="198.000000pt" viewBox="0 0 195.000000 198.000000"
 preserveAspectRatio="xMidYMid meet">
<metadata>
Created by potrace 1.15, written by Peter Selinger 2001-2017
</metadata>
<g transform="translate(0.000000,198.000000) scale(0.100000,-0.100000)"
fill="#000000" stroke="none">
<path d="M1545 1753 c-125 -19 -406 -80 -490 -105 -107 -32 -308 -97 -330
-108 -11 -5 -44 -19 -72 -31 l-53 -21 0 -457 0 -457 -57 4 c-93 7 -166 -20
-229 -82 -79 -80 -85 -152 -17 -220 97 -97 306 -66 391 58 l32 48 0 428 0 428
98 30 c192 58 415 96 640 108 l122 7 0 -340 0 -339 -71 4 c-187 11 -337 -148
-259 -276 26 -42 108 -82 171 -82 95 0 198 50 245 119 l24 36 0 632 0 633 -27
-1 c-16 -1 -68 -8 -118 -16z m35 -187 l0 -64 -37 -6 c-21 -3 -76 -10 -123 -16
-185 -23 -388 -67 -590 -125 -25 -8 -60 -17 -78 -20 l-33 -7 3 43 3 43 95 34
c136 49 300 98 410 122 80 19 295 56 338 59 8 1 12 -18 12 -63z"/>
</g>
</svg>
